<svg version="1.1" xmlns="http://www.w3.org/2000/svg" xmlns:xlink="http://www.w3.org/1999/xlink" width="838.89208984375" height="508"><defs/><g><text fill="#eeeeee" stroke="none" font-family="Arial" font-size="24px" font-style="normal" font-weight="normal" text-decoration="none" x="0" y="0">UNREGISTERED</text><text fill="#eeeeee" stroke="none" font-family="Arial" font-size="24px" font-style="normal" font-weight="normal" text-decoration="none" x="0" y="30">UNREGISTERED</text><text fill="#eeeeee" stroke="none" font-family="Arial" font-size="24px" font-style="normal" font-weight="normal" text-decoration="none" x="0" y="60">UNREGISTERED</text><text fill="#eeeeee" stroke="none" font-family="Arial" font-size="24px" font-style="normal" font-weight="normal" text-decoration="none" x="0" y="90">UNREGISTERED</text><text fill="#eeeeee" stroke="none" font-family="Arial" font-size="24px" font-style="normal" font-weight="normal" text-decoration="none" x="0" y="120">UNREGISTERED</text><text fill="#eeeeee" stroke="none" font-family="Arial" font-size="24px" font-style="normal" font-weight="normal" text-decoration="none" x="0" y="150">UNREGISTERED</text><text fill="#eeeeee" stroke="none" font-family="Arial" font-size="24px" font-style="normal" font-weight="normal" text-decoration="none" x="0" y="180">UNREGISTERED</text><text fill="#eeeeee" stroke="none" font-family="Arial" font-size="24px" font-style="normal" font-weight="normal" text-decoration="none" x="0" y="210">UNREGISTERED</text><text fill="#eeeeee" stroke="none" font-family="Arial" font-size="24px" font-style="normal" font-weight="normal" text-decoration="none" x="0" y="240">UNREGISTERED</text><text fill="#eeeeee" stroke="none" font-family="Arial" font-size="24px" font-style="normal" font-weight="normal" text-decoration="none" x="0" y="270">UNREGISTERED</text><text fill="#eeeeee" stroke="none" font-family="Arial" font-size="24px" font-style="normal" font-weight="normal" text-decoration="none" x="0" y="300">UNREGISTERED</text><text fill="#eeeeee" stroke="none" font-family="Arial" font-size="24px" font-style="normal" font-weight="normal" text-decoration="none" x="0" y="330">UNREGISTERED</text><text fill="#eeeeee" stroke="none" font-family="Arial" font-size="24px" font-style="normal" font-weight="normal" text-decoration="none" x="0" y="360">UNREGISTERED</text><text fill="#eeeeee" stroke="none" font-family="Arial" font-size="24px" font-style="normal" font-weight="normal" text-decoration="none" x="0" y="390">UNREGISTERED</text><text fill="#eeeeee" stroke="none" font-family="Arial" font-size="24px" font-style="normal" font-weight="normal" text-decoration="none" x="0" y="420">UNREGISTERED</text><text fill="#eeeeee" stroke="none" font-family="Arial" font-size="24px" font-style="normal" font-weight="normal" text-decoration="none" x="0" y="450">UNREGISTERED</text><text fill="#eeeeee" stroke="none" font-family="Arial" font-size="24px" font-style="normal" font-weight="normal" text-decoration="none" x="0" y="480">UNREGISTERED</text><text fill="#eeeeee" stroke="none" font-family="Arial" font-size="24px" font-style="normal" font-weight="normal" text-decoration="none" x="200" y="0">UNREGISTERED</text><text fill="#eeeeee" stroke="none" font-family="Arial" font-size="24px" font-style="normal" font-weight="normal" text-decoration="none" x="200" y="30">UNREGISTERED</text><text fill="#eeeeee" stroke="none" font-family="Arial" font-size="24px" font-style="normal" font-weight="normal" text-decoration="none" x="200" y="60">UNREGISTERED</text><text fill="#eeeeee" stroke="none" font-family="Arial" font-size="24px" font-style="normal" font-weight="normal" text-decoration="none" x="200" y="90">UNREGISTERED</text><text fill="#eeeeee" stroke="none" font-family="Arial" font-size="24px" font-style="normal" font-weight="normal" text-decoration="none" x="200" y="120">UNREGISTERED</text><text fill="#eeeeee" stroke="none" font-family="Arial" font-size="24px" font-style="normal" font-weight="normal" text-decoration="none" x="200" y="150">UNREGISTERED</text><text fill="#eeeeee" stroke="none" font-family="Arial" font-size="24px" font-style="normal" font-weight="normal" text-decoration="none" x="200" y="180">UNREGISTERED</text><text fill="#eeeeee" stroke="none" font-family="Arial" font-size="24px" font-style="normal" font-weight="normal" text-decoration="none" x="200" y="210">UNREGISTERED</text><text fill="#eeeeee" stroke="none" font-family="Arial" font-size="24px" font-style="normal" font-weight="normal" text-decoration="none" x="200" y="240">UNREGISTERED</text><text fill="#eeeeee" stroke="none" font-family="Arial" font-size="24px" font-style="normal" font-weight="normal" text-decoration="none" x="200" y="270">UNREGISTERED</text><text fill="#eeeeee" stroke="none" font-family="Arial" font-size="24px" font-style="normal" font-weight="normal" text-decoration="none" x="200" y="300">UNREGISTERED</text><text fill="#eeeeee" stroke="none" font-family="Arial" font-size="24px" font-style="normal" font-weight="normal" text-decoration="none" x="200" y="330">UNREGISTERED</text><text fill="#eeeeee" stroke="none" font-family="Arial" font-size="24px" font-style="normal" font-weight="normal" text-decoration="none" x="200" y="360">UNREGISTERED</text><text fill="#eeeeee" stroke="none" font-family="Arial" font-size="24px" font-style="normal" font-weight="normal" text-decoration="none" x="200" y="390">UNREGISTERED</text><text fill="#eeeeee" stroke="none" font-family="Arial" font-size="24px" font-style="normal" font-weight="normal" text-decoration="none" x="200" y="420">UNREGISTERED</text><text fill="#eeeeee" stroke="none" font-family="Arial" font-size="24px" font-style="normal" font-weight="normal" text-decoration="none" x="200" y="450">UNREGISTERED</text><text fill="#eeeeee" stroke="none" font-family="Arial" font-size="24px" font-style="normal" font-weight="normal" text-decoration="none" x="200" y="480">UNREGISTERED</text><text fill="#eeeeee" stroke="none" font-family="Arial" font-size="24px" font-style="normal" font-weight="normal" text-decoration="none" x="400" y="0">UNREGISTERED</text><text fill="#eeeeee" stroke="none" font-family="Arial" font-size="24px" font-style="normal" font-weight="normal" text-decoration="none" x="400" y="30">UNREGISTERED</text><text fill="#eeeeee" stroke="none" font-family="Arial" font-size="24px" font-style="normal" font-weight="normal" text-decoration="none" x="400" y="60">UNREGISTERED</text><text fill="#eeeeee" stroke="none" font-family="Arial" font-size="24px" font-style="normal" font-weight="normal" text-decoration="none" x="400" y="90">UNREGISTERED</text><text fill="#eeeeee" stroke="none" font-family="Arial" font-size="24px" font-style="normal" font-weight="normal" text-decoration="none" x="400" y="120">UNREGISTERED</text><text fill="#eeeeee" stroke="none" font-family="Arial" font-size="24px" font-style="normal" font-weight="normal" text-decoration="none" x="400" y="150">UNREGISTERED</text><text fill="#eeeeee" stroke="none" font-family="Arial" font-size="24px" font-style="normal" font-weight="normal" text-decoration="none" x="400" y="180">UNREGISTERED</text><text fill="#eeeeee" stroke="none" font-family="Arial" font-size="24px" font-style="normal" font-weight="normal" text-decoration="none" x="400" y="210">UNREGISTERED</text><text fill="#eeeeee" stroke="none" font-family="Arial" font-size="24px" font-style="normal" font-weight="normal" text-decoration="none" x="400" y="240">UNREGISTERED</text><text fill="#eeeeee" stroke="none" font-family="Arial" font-size="24px" font-style="normal" font-weight="normal" text-decoration="none" x="400" y="270">UNREGISTERED</text><text fill="#eeeeee" stroke="none" font-family="Arial" font-size="24px" font-style="normal" font-weight="normal" text-decoration="none" x="400" y="300">UNREGISTERED</text><text fill="#eeeeee" stroke="none" font-family="Arial" font-size="24px" font-style="normal" font-weight="normal" text-decoration="none" x="400" y="330">UNREGISTERED</text><text fill="#eeeeee" stroke="none" font-family="Arial" font-size="24px" font-style="normal" font-weight="normal" text-decoration="none" x="400" y="360">UNREGISTERED</text><text fill="#eeeeee" stroke="none" font-family="Arial" font-size="24px" font-style="normal" font-weight="normal" text-decoration="none" x="400" y="390">UNREGISTERED</text><text fill="#eeeeee" stroke="none" font-family="Arial" font-size="24px" font-style="normal" font-weight="normal" text-decoration="none" x="400" y="420">UNREGISTERED</text><text fill="#eeeeee" stroke="none" font-family="Arial" font-size="24px" font-style="normal" font-weight="normal" text-decoration="none" x="400" y="450">UNREGISTERED</text><text fill="#eeeeee" stroke="none" font-family="Arial" font-size="24px" font-style="normal" font-weight="normal" text-decoration="none" x="400" y="480">UNREGISTERED</text><text fill="#eeeeee" stroke="none" font-family="Arial" font-size="24px" font-style="normal" font-weight="normal" text-decoration="none" x="600" y="0">UNREGISTERED</text><text fill="#eeeeee" stroke="none" font-family="Arial" font-size="24px" font-style="normal" font-weight="normal" text-decoration="none" x="600" y="30">UNREGISTERED</text><text fill="#eeeeee" stroke="none" font-family="Arial" font-size="24px" font-style="normal" font-weight="normal" text-decoration="none" x="600" y="60">UNREGISTERED</text><text fill="#eeeeee" stroke="none" font-family="Arial" font-size="24px" font-style="normal" font-weight="normal" text-decoration="none" x="600" y="90">UNREGISTERED</text><text fill="#eeeeee" stroke="none" font-family="Arial" font-size="24px" font-style="normal" font-weight="normal" text-decoration="none" x="600" y="120">UNREGISTERED</text><text fill="#eeeeee" stroke="none" font-family="Arial" font-size="24px" font-style="normal" font-weight="normal" text-decoration="none" x="600" y="150">UNREGISTERED</text><text fill="#eeeeee" stroke="none" font-family="Arial" font-size="24px" font-style="normal" font-weight="normal" text-decoration="none" x="600" y="180">UNREGISTERED</text><text fill="#eeeeee" stroke="none" font-family="Arial" font-size="24px" font-style="normal" font-weight="normal" text-decoration="none" x="600" y="210">UNREGISTERED</text><text fill="#eeeeee" stroke="none" font-family="Arial" font-size="24px" font-style="normal" font-weight="normal" text-decoration="none" x="600" y="240">UNREGISTERED</text><text fill="#eeeeee" stroke="none" font-family="Arial" font-size="24px" font-style="normal" font-weight="normal" text-decoration="none" x="600" y="270">UNREGISTERED</text><text fill="#eeeeee" stroke="none" font-family="Arial" font-size="24px" font-style="normal" font-weight="normal" text-decoration="none" x="600" y="300">UNREGISTERED</text><text fill="#eeeeee" stroke="none" font-family="Arial" font-size="24px" font-style="normal" font-weight="normal" text-decoration="none" x="600" y="330">UNREGISTERED</text><text fill="#eeeeee" stroke="none" font-family="Arial" font-size="24px" font-style="normal" font-weight="normal" text-decoration="none" x="600" y="360">UNREGISTERED</text><text fill="#eeeeee" stroke="none" font-family="Arial" font-size="24px" font-style="normal" font-weight="normal" text-decoration="none" x="600" y="390">UNREGISTERED</text><text fill="#eeeeee" stroke="none" font-family="Arial" font-size="24px" font-style="normal" font-weight="normal" text-decoration="none" x="600" y="420">UNREGISTERED</text><text fill="#eeeeee" stroke="none" font-family="Arial" font-size="24px" font-style="normal" font-weight="normal" text-decoration="none" x="600" y="450">UNREGISTERED</text><text fill="#eeeeee" stroke="none" font-family="Arial" font-size="24px" font-style="normal" font-weight="normal" text-decoration="none" x="600" y="480">UNREGISTERED</text><text fill="#eeeeee" stroke="none" font-family="Arial" font-size="24px" font-style="normal" font-weight="normal" text-decoration="none" x="800" y="0">UNREGISTERED</text><text fill="#eeeeee" stroke="none" font-family="Arial" font-size="24px" font-style="normal" font-weight="normal" text-decoration="none" x="800" y="30">UNREGISTERED</text><text fill="#eeeeee" stroke="none" font-family="Arial" font-size="24px" font-style="normal" font-weight="normal" text-decoration="none" x="800" y="60">UNREGISTERED</text><text fill="#eeeeee" stroke="none" font-family="Arial" font-size="24px" font-style="normal" font-weight="normal" text-decoration="none" x="800" y="90">UNREGISTERED</text><text fill="#eeeeee" stroke="none" font-family="Arial" font-size="24px" font-style="normal" font-weight="normal" text-decoration="none" x="800" y="120">UNREGISTERED</text><text fill="#eeeeee" stroke="none" font-family="Arial" font-size="24px" font-style="normal" font-weight="normal" text-decoration="none" x="800" y="150">UNREGISTERED</text><text fill="#eeeeee" stroke="none" font-family="Arial" font-size="24px" font-style="normal" font-weight="normal" text-decoration="none" x="800" y="180">UNREGISTERED</text><text fill="#eeeeee" stroke="none" font-family="Arial" font-size="24px" font-style="normal" font-weight="normal" text-decoration="none" x="800" y="210">UNREGISTERED</text><text fill="#eeeeee" stroke="none" font-family="Arial" font-size="24px" font-style="normal" font-weight="normal" text-decoration="none" x="800" y="240">UNREGISTERED</text><text fill="#eeeeee" stroke="none" font-family="Arial" font-size="24px" font-style="normal" font-weight="normal" text-decoration="none" x="800" y="270">UNREGISTERED</text><text fill="#eeeeee" stroke="none" font-family="Arial" font-size="24px" font-style="normal" font-weight="normal" text-decoration="none" x="800" y="300">UNREGISTERED</text><text fill="#eeeeee" stroke="none" font-family="Arial" font-size="24px" font-style="normal" font-weight="normal" text-decoration="none" x="800" y="330">UNREGISTERED</text><text fill="#eeeeee" stroke="none" font-family="Arial" font-size="24px" font-style="normal" font-weight="normal" text-decoration="none" x="800" y="360">UNREGISTERED</text><text fill="#eeeeee" stroke="none" font-family="Arial" font-size="24px" font-style="normal" font-weight="normal" text-decoration="none" x="800" y="390">UNREGISTERED</text><text fill="#eeeeee" stroke="none" font-family="Arial" font-size="24px" font-style="normal" font-weight="normal" text-decoration="none" x="800" y="420">UNREGISTERED</text><text fill="#eeeeee" stroke="none" font-family="Arial" font-size="24px" font-style="normal" font-weight="normal" text-decoration="none" x="800" y="450">UNREGISTERED</text><text fill="#eeeeee" stroke="none" font-family="Arial" font-size="24px" font-style="normal" font-weight="normal" text-decoration="none" x="800" y="480">UNREGISTERED</text><g transform="translate(-14,-22) scale(1,1)"><path fill="#ffffff" stroke="none" d="M 88.5 32 L 143.13720703125 32 Q 159.63720703125 32 159.63720703125 48.5 L 159.63720703125 47.5 Q 159.63720703125 64 143.13720703125 64 L 88.5 64 Q 72 64 72 47.5 L 72 48.5 Q 72 32 88.5 32 Z"/></g><g transform="translate(-14,-22) scale(1,1)"><path fill="none" stroke="#000000" d="M 88.5 32 L 143.13720703125 32 Q 159.63720703125 32 159.63720703125 48.5 L 159.63720703125 47.5 Q 159.63720703125 64 143.13720703125 64 L 88.5 64 Q 72 64 72 47.5 L 72 48.5 Q 72 32 88.5 32 Z" stroke-miterlimit="10"/></g><g transform="translate(-14,-22) scale(1,1)"><g><path fill="none" stroke="none"/><text fill="#000000" stroke="none" font-family="Arial" font-size="13px" font-style="normal" font-weight="normal" text-decoration="none" x="102.091796875" y="53">Start</text></g></g><g transform="translate(-14,-22) scale(1,1)"><rect fill="#ffffff" stroke="none" x="24" y="488" width="226.30810546875" height="32"/></g><g transform="translate(-14,-22) scale(1,1)"><path fill="none" stroke="#000000" d="M 24 488 L 250.30810546875 488 L 250.30810546875 520 L 24 520 L 24 488 Z Z" stroke-miterlimit="10"/></g><g transform="translate(-14,-22) scale(1,1)"><g><path fill="none" stroke="none"/><text fill="#000000" stroke="none" font-family="Arial" font-size="13px" font-style="normal" font-weight="normal" text-decoration="none" x="41.082275390625" y="509.5">stories/story_XXX.xmlを読み込む</text></g></g><g transform="translate(-14,-22) scale(1,1)"><rect fill="#ffffff" stroke="none" x="64" y="96" width="131.43603515625" height="32"/></g><g transform="translate(-14,-22) scale(1,1)"><path fill="none" stroke="#000000" d="M 64 96 L 195.43603515625 96 L 195.43603515625 128 L 64 128 L 64 96 Z Z" stroke-miterlimit="10"/></g><g transform="translate(-14,-22) scale(1,1)"><g><path fill="none" stroke="none"/><text fill="#000000" stroke="none" font-family="Arial" font-size="13px" font-style="normal" font-weight="normal" text-decoration="none" x="76.264404296875" y="117.5">conf.txtを読み込む</text></g></g><g transform="translate(-14,-22) scale(1,1)"><rect fill="#ffffff" stroke="none" x="80" y="288" width="132.826171875" height="32"/></g><g transform="translate(-14,-22) scale(1,1)"><path fill="none" stroke="#000000" d="M 80 288 L 212.826171875 288 L 212.826171875 320 L 80 320 L 80 288 Z Z" stroke-miterlimit="10"/></g><g transform="translate(-14,-22) scale(1,1)"><g><path fill="none" stroke="none"/><text fill="#000000" stroke="none" font-family="Arial" font-size="13px" font-style="normal" font-weight="normal" text-decoration="none" x="91.5185546875" y="309.5">Job.xmlを読み込む</text></g></g><g transform="translate(-14,-22) scale(1,1)"><rect fill="#ffffff" stroke="none" x="40" y="224" width="182.90283203125" height="32"/></g><g transform="translate(-14,-22) scale(1,1)"><path fill="none" stroke="#000000" d="M 40 224 L 222.90283203125 224 L 222.90283203125 256 L 40 256 L 40 224 Z Z" stroke-miterlimit="10"/></g><g transform="translate(-14,-22) scale(1,1)"><g><path fill="none" stroke="none"/><text fill="#000000" stroke="none" font-family="Arial" font-size="13px" font-style="normal" font-weight="normal" text-decoration="none" x="53.8037109375" y="245.5">Commands.xmlを読み込む</text></g></g><g transform="translate(-14,-22) scale(1,1)"><rect fill="#ffffff" stroke="none" x="64" y="160" width="138.85009765625" height="32"/></g><g transform="translate(-14,-22) scale(1,1)"><path fill="none" stroke="#000000" d="M 64 160 L 202.85009765625 160 L 202.85009765625 192 L 64 192 L 64 160 Z Z" stroke-miterlimit="10"/></g><g transform="translate(-14,-22) scale(1,1)"><g><path fill="none" stroke="none"/><text fill="#000000" stroke="none" font-family="Arial" font-size="13px" font-style="normal" font-weight="normal" text-decoration="none" x="75.2900390625" y="181.5">STM.xmlを読み込む</text></g></g><g transform="translate(-14,-22) scale(1,1)"><rect fill="#ffffff" stroke="none" x="56" y="352" width="160.52734375" height="32"/></g><g transform="translate(-14,-22) scale(1,1)"><path fill="none" stroke="#000000" d="M 56 352 L 216.52734375 352 L 216.52734375 384 L 56 384 L 56 352 Z Z" stroke-miterlimit="10"/></g><g transform="translate(-14,-22) scale(1,1)"><g><path fill="none" stroke="none"/><text fill="#000000" stroke="none" font-family="Arial" font-size="13px" font-style="normal" font-weight="normal" text-decoration="none" x="68.727783203125" y="373.5">Monster.xmlを読み込む</text></g></g><g transform="translate(-14,-22) scale(1,1)"><rect fill="#ffffff" stroke="none" x="64" y="424" width="149.9267578125" height="32"/></g><g transform="translate(-14,-22) scale(1,1)"><path fill="none" stroke="#000000" d="M 64 424 L 213.9267578125 424 L 213.9267578125 456 L 64 456 L 64 424 Z Z" stroke-miterlimit="10"/></g><g transform="translate(-14,-22) scale(1,1)"><g><path fill="none" stroke="none"/><text fill="#000000" stroke="none" font-family="Arial" font-size="13px" font-style="normal" font-weight="normal" text-decoration="none" x="76.118408203125" y="445.5">Shops.xmlを読み込む</text></g></g><g transform="translate(-14,-22) scale(1,1)"><path fill="none" stroke="#000000" d="M 118 64 L 118 96" stroke-miterlimit="10"/></g><g transform="translate(-14,-22) scale(1,1)"><path fill="#000000" stroke="none" d="M 113.79048224398402 85.83732514237585 L 118 96 L 122.20951775601598 85.83732514237585"/></g><g transform="translate(-14,-22) scale(1,1)"><path fill="none" stroke="#000000" d="M 113.79048224398402 85.83732514237585 L 118 96 L 122.20951775601598 85.83732514237585 L 113.79048224398402 85.83732514237585" stroke-miterlimit="10"/></g><g transform="translate(-14,-22) scale(1,1)"><path fill="none" stroke="#000000" d="M 127 128 L 127 160" stroke-miterlimit="10"/></g><g transform="translate(-14,-22) scale(1,1)"><path fill="#000000" stroke="none" d="M 122.79048224398402 149.83732514237585 L 127 160 L 131.209517756016 149.83732514237585"/></g><g transform="translate(-14,-22) scale(1,1)"><path fill="none" stroke="#000000" d="M 122.79048224398402 149.83732514237585 L 127 160 L 131.209517756016 149.83732514237585 L 122.79048224398402 149.83732514237585" stroke-miterlimit="10"/></g><g transform="translate(-14,-22) scale(1,1)"><path fill="none" stroke="#000000" d="M 128 320 L 128 352" stroke-miterlimit="10"/></g><g transform="translate(-14,-22) scale(1,1)"><path fill="#000000" stroke="none" d="M 123.79048224398402 341.83732514237585 L 128 352 L 132.209517756016 341.83732514237585"/></g><g transform="translate(-14,-22) scale(1,1)"><path fill="none" stroke="#000000" d="M 123.79048224398402 341.83732514237585 L 128 352 L 132.209517756016 341.83732514237585 L 123.79048224398402 341.83732514237585" stroke-miterlimit="10"/></g><g transform="translate(-14,-22) scale(1,1)"><path fill="none" stroke="#000000" d="M 133 256 L 133 288" stroke-miterlimit="10"/></g><g transform="translate(-14,-22) scale(1,1)"><path fill="#000000" stroke="none" d="M 128.790482243984 277.83732514237585 L 133 288 L 137.209517756016 277.83732514237585"/></g><g transform="translate(-14,-22) scale(1,1)"><path fill="none" stroke="#000000" d="M 128.790482243984 277.83732514237585 L 133 288 L 137.209517756016 277.83732514237585 L 128.790482243984 277.83732514237585" stroke-miterlimit="10"/></g><g transform="translate(-14,-22) scale(1,1)"><path fill="none" stroke="#000000" d="M 133 192 L 133 224" stroke-miterlimit="10"/></g><g transform="translate(-14,-22) scale(1,1)"><path fill="#000000" stroke="none" d="M 128.790482243984 213.83732514237585 L 133 224 L 137.209517756016 213.83732514237585"/></g><g transform="translate(-14,-22) scale(1,1)"><path fill="none" stroke="#000000" d="M 128.790482243984 213.83732514237585 L 133 224 L 137.209517756016 213.83732514237585 L 128.790482243984 213.83732514237585" stroke-miterlimit="10"/></g><g transform="translate(-14,-22) scale(1,1)"><path fill="none" stroke="#000000" d="M 134 384 L 134 424" stroke-miterlimit="10"/></g><g transform="translate(-14,-22) scale(1,1)"><path fill="#000000" stroke="none" d="M 129.790482243984 413.83732514237585 L 134 424 L 138.209517756016 413.83732514237585"/></g><g transform="translate(-14,-22) scale(1,1)"><path fill="none" stroke="#000000" d="M 129.790482243984 413.83732514237585 L 134 424 L 138.209517756016 413.83732514237585 L 129.790482243984 413.83732514237585" stroke-miterlimit="10"/></g><g transform="translate(-14,-22) scale(1,1)"><path fill="none" stroke="#000000" d="M 134 456 L 134 488" stroke-miterlimit="10"/></g><g transform="translate(-14,-22) scale(1,1)"><path fill="#000000" stroke="none" d="M 129.790482243984 477.83732514237585 L 134 488 L 138.209517756016 477.83732514237585"/></g><g transform="translate(-14,-22) scale(1,1)"><path fill="none" stroke="#000000" d="M 129.790482243984 477.83732514237585 L 134 488 L 138.209517756016 477.83732514237585 L 129.790482243984 477.83732514237585" stroke-miterlimit="10"/></g><g transform="translate(-14,-22) scale(1,1)"><rect fill="#ffffff" stroke="none" x="280" y="96" width="201" height="32"/></g><g transform="translate(-14,-22) scale(1,1)"><path fill="none" stroke="#000000" d="M 280 96 L 481 96 L 481 128 L 280 128 L 280 96 Z Z" stroke-miterlimit="10"/></g><g transform="translate(-14,-22) scale(1,1)"><g><path fill="none" stroke="none"/><text fill="#000000" stroke="none" font-family="Arial" font-size="13px" font-style="normal" font-weight="normal" text-decoration="none" x="289.5" y="118">設定オブジェクトに値をセット</text></g></g><g transform="translate(-14,-22) scale(1,1)"><rect fill="#ffffff" stroke="none" x="280" y="288" width="266" height="32"/></g><g transform="translate(-14,-22) scale(1,1)"><path fill="none" stroke="#000000" d="M 280 288 L 546 288 L 546 320 L 280 320 L 280 288 Z Z" stroke-miterlimit="10"/></g><g transform="translate(-14,-22) scale(1,1)"><g><path fill="none" stroke="none"/><text fill="#000000" stroke="none" font-family="Arial" font-size="13px" font-style="normal" font-weight="normal" text-decoration="none" x="289.5" y="310">職業オブジェクトを生成しリストにセット</text></g></g><g transform="translate(-14,-22) scale(1,1)"><rect fill="#ffffff" stroke="none" x="280" y="224" width="214" height="32"/></g><g transform="translate(-14,-22) scale(1,1)"><path fill="none" stroke="#000000" d="M 280 224 L 494 224 L 494 256 L 280 256 L 280 224 Z Z" stroke-miterlimit="10"/></g><g transform="translate(-14,-22) scale(1,1)"><g><path fill="none" stroke="none"/><text fill="#000000" stroke="none" font-family="Arial" font-size="13px" font-style="normal" font-weight="normal" text-decoration="none" x="289.5" y="246">コマンドオブジェクトを生成する</text></g></g><g transform="translate(-14,-22) scale(1,1)"><rect fill="#ffffff" stroke="none" x="280" y="160" width="208" height="45"/></g><g transform="translate(-14,-22) scale(1,1)"><path fill="none" stroke="#000000" d="M 280 160 L 488 160 L 488 205 L 280 205 L 280 160 Z Z" stroke-miterlimit="10"/></g><g transform="translate(-14,-22) scale(1,1)"><g><path fill="none" stroke="none"/><text fill="#000000" stroke="none" font-family="Arial" font-size="13px" font-style="normal" font-weight="normal" text-decoration="none" x="293.345947265625" y="181.5">Skill, Techick, Magicを生成する</text></g></g><g transform="translate(-14,-22) scale(1,1)"><rect fill="#ffffff" stroke="none" x="280" y="352" width="305" height="32"/></g><g transform="translate(-14,-22) scale(1,1)"><path fill="none" stroke="#000000" d="M 280 352 L 585 352 L 585 384 L 280 384 L 280 352 Z Z" stroke-miterlimit="10"/></g><g transform="translate(-14,-22) scale(1,1)"><g><path fill="none" stroke="none"/><text fill="#000000" stroke="none" font-family="Arial" font-size="13px" font-style="normal" font-weight="normal" text-decoration="none" x="289.5" y="374">モンスターオブジェクトを生成しリストにセット</text></g></g><g transform="translate(-14,-22) scale(1,1)"><rect fill="#ffffff" stroke="none" x="288" y="424" width="323.916015625" height="32"/></g><g transform="translate(-14,-22) scale(1,1)"><path fill="none" stroke="#000000" d="M 288 424 L 611.916015625 424 L 611.916015625 456 L 288 456 L 288 424 Z Z" stroke-miterlimit="10"/></g><g transform="translate(-14,-22) scale(1,1)"><g><path fill="none" stroke="none"/><text fill="#000000" stroke="none" font-family="Arial" font-size="13px" font-style="normal" font-weight="normal" text-decoration="none" x="298.277587890625" y="446">Shopオブジェクトを生成し、店舗マップに登録する</text></g></g><g transform="translate(-14,-22) scale(1,1)"><rect fill="#ffffff" stroke="none" x="280" y="488" width="398.767578125" height="32"/></g><g transform="translate(-14,-22) scale(1,1)"><path fill="none" stroke="#000000" d="M 280 488 L 678.767578125 488 L 678.767578125 520 L 280 520 L 280 488 Z Z" stroke-miterlimit="10"/></g><g transform="translate(-14,-22) scale(1,1)"><g><path fill="none" stroke="none"/><text fill="#000000" stroke="none" font-family="Arial" font-size="13px" font-style="normal" font-weight="normal" text-decoration="none" x="291.2392578125" y="510">storiesフォルダ内のファイルからシーンオブジェクトを生成する</text></g></g><g transform="translate(-14,-22) scale(1,1)"><path fill="none" stroke="#000000" d="M 195 112 L 280 112" stroke-miterlimit="10"/></g><g transform="translate(-14,-22) scale(1,1)"><path fill="#000000" stroke="none" d="M 269.83732514237585 116.20951775601598 L 280 112 L 269.83732514237585 107.79048224398402"/></g><g transform="translate(-14,-22) scale(1,1)"><path fill="none" stroke="#000000" d="M 269.83732514237585 116.20951775601598 L 280 112 L 269.83732514237585 107.79048224398402 L 269.83732514237585 116.20951775601598" stroke-miterlimit="10"/></g><g transform="translate(-14,-22) scale(1,1)"><g><path fill="none" stroke="none"/><text fill="#000000" stroke="none" font-family="Arial" font-size="13px" font-style="normal" font-weight="normal" text-decoration="none" x="223.5" y="102.5">作成</text></g></g><g transform="translate(-14,-22) scale(1,1)"><path fill="none" stroke="#000000" d="M 203 176 L 280 176" stroke-miterlimit="10"/></g><g transform="translate(-14,-22) scale(1,1)"><path fill="#000000" stroke="none" d="M 269.83732514237585 180.209517756016 L 280 176 L 269.83732514237585 171.790482243984"/></g><g transform="translate(-14,-22) scale(1,1)"><path fill="none" stroke="#000000" d="M 269.83732514237585 180.209517756016 L 280 176 L 269.83732514237585 171.790482243984 L 269.83732514237585 180.209517756016" stroke-miterlimit="10"/></g><g transform="translate(-14,-22) scale(1,1)"><g><path fill="none" stroke="none"/><text fill="#000000" stroke="none" font-family="Arial" font-size="13px" font-style="normal" font-weight="normal" text-decoration="none" x="227.5" y="166.5">作成</text></g></g><g transform="translate(-14,-22) scale(1,1)"><path fill="none" stroke="#000000" d="M 223 240 L 280 240" stroke-miterlimit="10"/></g><g transform="translate(-14,-22) scale(1,1)"><path fill="#000000" stroke="none" d="M 269.83732514237585 244.209517756016 L 280 240 L 269.83732514237585 235.790482243984"/></g><g transform="translate(-14,-22) scale(1,1)"><path fill="none" stroke="#000000" d="M 269.83732514237585 244.209517756016 L 280 240 L 269.83732514237585 235.790482243984 L 269.83732514237585 244.209517756016" stroke-miterlimit="10"/></g><g transform="translate(-14,-22) scale(1,1)"><g><path fill="none" stroke="none"/><text fill="#000000" stroke="none" font-family="Arial" font-size="13px" font-style="normal" font-weight="normal" text-decoration="none" x="237.5" y="230.5">作成</text></g></g><g transform="translate(-14,-22) scale(1,1)"><path fill="none" stroke="#000000" d="M 213 304 L 280 304" stroke-miterlimit="10"/></g><g transform="translate(-14,-22) scale(1,1)"><path fill="#000000" stroke="none" d="M 269.83732514237585 308.209517756016 L 280 304 L 269.83732514237585 299.790482243984"/></g><g transform="translate(-14,-22) scale(1,1)"><path fill="none" stroke="#000000" d="M 269.83732514237585 308.209517756016 L 280 304 L 269.83732514237585 299.790482243984 L 269.83732514237585 308.209517756016" stroke-miterlimit="10"/></g><g transform="translate(-14,-22) scale(1,1)"><g><path fill="none" stroke="none"/><text fill="#000000" stroke="none" font-family="Arial" font-size="13px" font-style="normal" font-weight="normal" text-decoration="none" x="232.5" y="294.5">作成</text></g></g><g transform="translate(-14,-22) scale(1,1)"><path fill="none" stroke="#000000" d="M 217 368 L 280 368" stroke-miterlimit="10"/></g><g transform="translate(-14,-22) scale(1,1)"><path fill="#000000" stroke="none" d="M 269.83732514237585 372.209517756016 L 280 368 L 269.83732514237585 363.790482243984"/></g><g transform="translate(-14,-22) scale(1,1)"><path fill="none" stroke="#000000" d="M 269.83732514237585 372.209517756016 L 280 368 L 269.83732514237585 363.790482243984 L 269.83732514237585 372.209517756016" stroke-miterlimit="10"/></g><g transform="translate(-14,-22) scale(1,1)"><g><path fill="none" stroke="none"/><text fill="#000000" stroke="none" font-family="Arial" font-size="13px" font-style="normal" font-weight="normal" text-decoration="none" x="234.5" y="358.5">作成</text></g></g><g transform="translate(-14,-22) scale(1,1)"><path fill="none" stroke="#000000" d="M 214 440 L 288 440" stroke-miterlimit="10"/></g><g transform="translate(-14,-22) scale(1,1)"><path fill="#000000" stroke="none" d="M 277.83732514237585 444.209517756016 L 288 440 L 277.83732514237585 435.790482243984"/></g><g transform="translate(-14,-22) scale(1,1)"><path fill="none" stroke="#000000" d="M 277.83732514237585 444.209517756016 L 288 440 L 277.83732514237585 435.790482243984 L 277.83732514237585 444.209517756016" stroke-miterlimit="10"/></g><g transform="translate(-14,-22) scale(1,1)"><g><path fill="none" stroke="none"/><text fill="#000000" stroke="none" font-family="Arial" font-size="13px" font-style="normal" font-weight="normal" text-decoration="none" x="237.5" y="430.5">作成</text></g></g><g transform="translate(-14,-22) scale(1,1)"><path fill="none" stroke="#000000" d="M 250 504 L 280 504" stroke-miterlimit="10"/></g><g transform="translate(-14,-22) scale(1,1)"><path fill="#000000" stroke="none" d="M 269.83732514237585 508.209517756016 L 280 504 L 269.83732514237585 499.790482243984"/></g><g transform="translate(-14,-22) scale(1,1)"><path fill="none" stroke="#000000" d="M 269.83732514237585 508.209517756016 L 280 504 L 269.83732514237585 499.790482243984 L 269.83732514237585 508.209517756016" stroke-miterlimit="10"/></g><g transform="translate(-14,-22) scale(1,1)"><g><path fill="none" stroke="none"/><text fill="#000000" stroke="none" font-family="Arial" font-size="13px" font-style="normal" font-weight="normal" text-decoration="none" x="251.5" y="494.5">作成</text></g></g><g transform="translate(-14,-22) scale(1,1)"><path fill="#ffffff" stroke="none" d="M 712 80 L 799.06640625 80 L 809.06640625 90 L 809.06640625 118 L 712 118 L 712 80"/></g><g transform="translate(-14,-22) scale(1,1)"><path fill="none" stroke="#000000" d="M 712 80 L 799.06640625 80 L 809.06640625 90 L 809.06640625 118 L 712 118 L 712 80 L 712 80" stroke-miterlimit="10"/></g><g transform="translate(-14,-22) scale(1,1)"><path fill="none" stroke="#000000" d="M 799.06640625 80 L 799.06640625 90 L 809.06640625 90 L 799.06640625 80" stroke-miterlimit="10"/></g><g transform="translate(-14,-22) scale(1,1)"><g><path fill="none" stroke="none"/><text fill="#000000" stroke="none" font-family="Arial" font-size="13px" font-style="normal" font-weight="normal" text-decoration="none" x="717" y="96">Configクラス</text></g></g><g transform="translate(-14,-22) scale(1,1)"><path fill="none" stroke="#000000" d="M 482 109 L 711 101" stroke-miterlimit="10" stroke-dasharray="3"/></g><g transform="translate(-14,-22) scale(1,1)"><path fill="#ffffff" stroke="none" d="M 712 152 L 784.65087890625 152 L 794.65087890625 162 L 794.65087890625 190 L 712 190 L 712 152"/></g><g transform="translate(-14,-22) scale(1,1)"><path fill="none" stroke="#000000" d="M 712 152 L 784.65087890625 152 L 794.65087890625 162 L 794.65087890625 190 L 712 190 L 712 152 L 712 152" stroke-miterlimit="10"/></g><g transform="translate(-14,-22) scale(1,1)"><path fill="none" stroke="#000000" d="M 784.65087890625 152 L 784.65087890625 162 L 794.65087890625 162 L 784.65087890625 152" stroke-miterlimit="10"/></g><g transform="translate(-14,-22) scale(1,1)"><g><path fill="none" stroke="none"/><text fill="#000000" stroke="none" font-family="Arial" font-size="13px" font-style="normal" font-weight="normal" text-decoration="none" x="717" y="168">Stmクラス</text></g></g><g transform="translate(-14,-22) scale(1,1)"><path fill="#ffffff" stroke="none" d="M 720 224 L 831.89208984375 224 L 841.89208984375 234 L 841.89208984375 262 L 720 262 L 720 224"/></g><g transform="translate(-14,-22) scale(1,1)"><path fill="none" stroke="#000000" d="M 720 224 L 831.89208984375 224 L 841.89208984375 234 L 841.89208984375 262 L 720 262 L 720 224 L 720 224" stroke-miterlimit="10"/></g><g transform="translate(-14,-22) scale(1,1)"><path fill="none" stroke="#000000" d="M 831.89208984375 224 L 831.89208984375 234 L 841.89208984375 234 L 831.89208984375 224" stroke-miterlimit="10"/></g><g transform="translate(-14,-22) scale(1,1)"><g><path fill="none" stroke="none"/><text fill="#000000" stroke="none" font-family="Arial" font-size="13px" font-style="normal" font-weight="normal" text-decoration="none" x="725" y="240">Commandクラス</text></g></g><g transform="translate(-14,-22) scale(1,1)"><path fill="#ffffff" stroke="none" d="M 720 288 L 788.404296875 288 L 798.404296875 298 L 798.404296875 326 L 720 326 L 720 288"/></g><g transform="translate(-14,-22) scale(1,1)"><path fill="none" stroke="#000000" d="M 720 288 L 788.404296875 288 L 798.404296875 298 L 798.404296875 326 L 720 326 L 720 288 L 720 288" stroke-miterlimit="10"/></g><g transform="translate(-14,-22) scale(1,1)"><path fill="none" stroke="#000000" d="M 788.404296875 288 L 788.404296875 298 L 798.404296875 298 L 788.404296875 288" stroke-miterlimit="10"/></g><g transform="translate(-14,-22) scale(1,1)"><g><path fill="none" stroke="none"/><text fill="#000000" stroke="none" font-family="Arial" font-size="13px" font-style="normal" font-weight="normal" text-decoration="none" x="725" y="304">Jobクラス</text></g></g><g transform="translate(-14,-22) scale(1,1)"><path fill="#ffffff" stroke="none" d="M 720 344 L 817.82568359375 344 L 827.82568359375 354 L 827.82568359375 382 L 720 382 L 720 344"/></g><g transform="translate(-14,-22) scale(1,1)"><path fill="none" stroke="#000000" d="M 720 344 L 817.82568359375 344 L 827.82568359375 354 L 827.82568359375 382 L 720 382 L 720 344 L 720 344" stroke-miterlimit="10"/></g><g transform="translate(-14,-22) scale(1,1)"><path fill="none" stroke="#000000" d="M 817.82568359375 344 L 817.82568359375 354 L 827.82568359375 354 L 817.82568359375 344" stroke-miterlimit="10"/></g><g transform="translate(-14,-22) scale(1,1)"><g><path fill="none" stroke="none"/><text fill="#000000" stroke="none" font-family="Arial" font-size="13px" font-style="normal" font-weight="normal" text-decoration="none" x="725" y="360">Monsterクラス</text></g></g><g transform="translate(-14,-22) scale(1,1)"><path fill="#ffffff" stroke="none" d="M 720 416 L 798.916015625 416 L 808.916015625 426 L 808.916015625 454 L 720 454 L 720 416"/></g><g transform="translate(-14,-22) scale(1,1)"><path fill="none" stroke="#000000" d="M 720 416 L 798.916015625 416 L 808.916015625 426 L 808.916015625 454 L 720 454 L 720 416 L 720 416" stroke-miterlimit="10"/></g><g transform="translate(-14,-22) scale(1,1)"><path fill="none" stroke="#000000" d="M 798.916015625 416 L 798.916015625 426 L 808.916015625 426 L 798.916015625 416" stroke-miterlimit="10"/></g><g transform="translate(-14,-22) scale(1,1)"><g><path fill="none" stroke="none"/><text fill="#000000" stroke="none" font-family="Arial" font-size="13px" font-style="normal" font-weight="normal" text-decoration="none" x="725" y="432">Shopクラス</text></g></g><g transform="translate(-14,-22) scale(1,1)"><path fill="#ffffff" stroke="none" d="M 712 488 L 796.8828125 488 L 806.8828125 498 L 806.8828125 519 L 712 519 L 712 488"/></g><g transform="translate(-14,-22) scale(1,1)"><path fill="none" stroke="#000000" d="M 712 488 L 796.8828125 488 L 806.8828125 498 L 806.8828125 519 L 712 519 L 712 488 L 712 488" stroke-miterlimit="10"/></g><g transform="translate(-14,-22) scale(1,1)"><path fill="none" stroke="#000000" d="M 796.8828125 488 L 796.8828125 498 L 806.8828125 498 L 796.8828125 488" stroke-miterlimit="10"/></g><g transform="translate(-14,-22) scale(1,1)"><g><path fill="none" stroke="none"/><text fill="#000000" stroke="none" font-family="Arial" font-size="13px" font-style="normal" font-weight="normal" text-decoration="none" x="717" y="504">Sceneクラス</text></g></g><g transform="translate(-14,-22) scale(1,1)"><path fill="none" stroke="#000000" d="M 489 179 L 711 172" stroke-miterlimit="10" stroke-dasharray="3"/></g><g transform="translate(-14,-22) scale(1,1)"><path fill="none" stroke="#000000" d="M 495 241 L 719 243" stroke-miterlimit="10" stroke-dasharray="3"/></g><g transform="translate(-14,-22) scale(1,1)"><path fill="none" stroke="#000000" d="M 547 305 L 719 307" stroke-miterlimit="10" stroke-dasharray="3"/></g><g transform="translate(-14,-22) scale(1,1)"><path fill="none" stroke="#000000" d="M 586 366 L 719 364" stroke-miterlimit="10" stroke-dasharray="3"/></g><g transform="translate(-14,-22) scale(1,1)"><path fill="none" stroke="#000000" d="M 613 437 L 719 436" stroke-miterlimit="10" stroke-dasharray="3"/></g><g transform="translate(-14,-22) scale(1,1)"><path fill="none" stroke="#000000" d="M 680 504 L 711 504" stroke-miterlimit="10" stroke-dasharray="3"/></g></g></svg>