<svg version="1.1" xmlns="http://www.w3.org/2000/svg" xmlns:xlink="http://www.w3.org/1999/xlink" width="1005" height="451"><defs/><g><text fill="#eeeeee" stroke="none" font-family="Arial" font-size="24px" font-style="normal" font-weight="normal" text-decoration="none" x="0" y="0">UNREGISTERED</text><text fill="#eeeeee" stroke="none" font-family="Arial" font-size="24px" font-style="normal" font-weight="normal" text-decoration="none" x="0" y="30">UNREGISTERED</text><text fill="#eeeeee" stroke="none" font-family="Arial" font-size="24px" font-style="normal" font-weight="normal" text-decoration="none" x="0" y="60">UNREGISTERED</text><text fill="#eeeeee" stroke="none" font-family="Arial" font-size="24px" font-style="normal" font-weight="normal" text-decoration="none" x="0" y="90">UNREGISTERED</text><text fill="#eeeeee" stroke="none" font-family="Arial" font-size="24px" font-style="normal" font-weight="normal" text-decoration="none" x="0" y="120">UNREGISTERED</text><text fill="#eeeeee" stroke="none" font-family="Arial" font-size="24px" font-style="normal" font-weight="normal" text-decoration="none" x="0" y="150">UNREGISTERED</text><text fill="#eeeeee" stroke="none" font-family="Arial" font-size="24px" font-style="normal" font-weight="normal" text-decoration="none" x="0" y="180">UNREGISTERED</text><text fill="#eeeeee" stroke="none" font-family="Arial" font-size="24px" font-style="normal" font-weight="normal" text-decoration="none" x="0" y="210">UNREGISTERED</text><text fill="#eeeeee" stroke="none" font-family="Arial" font-size="24px" font-style="normal" font-weight="normal" text-decoration="none" x="0" y="240">UNREGISTERED</text><text fill="#eeeeee" stroke="none" font-family="Arial" font-size="24px" font-style="normal" font-weight="normal" text-decoration="none" x="0" y="270">UNREGISTERED</text><text fill="#eeeeee" stroke="none" font-family="Arial" font-size="24px" font-style="normal" font-weight="normal" text-decoration="none" x="0" y="300">UNREGISTERED</text><text fill="#eeeeee" stroke="none" font-family="Arial" font-size="24px" font-style="normal" font-weight="normal" text-decoration="none" x="0" y="330">UNREGISTERED</text><text fill="#eeeeee" stroke="none" font-family="Arial" font-size="24px" font-style="normal" font-weight="normal" text-decoration="none" x="0" y="360">UNREGISTERED</text><text fill="#eeeeee" stroke="none" font-family="Arial" font-size="24px" font-style="normal" font-weight="normal" text-decoration="none" x="0" y="390">UNREGISTERED</text><text fill="#eeeeee" stroke="none" font-family="Arial" font-size="24px" font-style="normal" font-weight="normal" text-decoration="none" x="0" y="420">UNREGISTERED</text><text fill="#eeeeee" stroke="none" font-family="Arial" font-size="24px" font-style="normal" font-weight="normal" text-decoration="none" x="0" y="450">UNREGISTERED</text><text fill="#eeeeee" stroke="none" font-family="Arial" font-size="24px" font-style="normal" font-weight="normal" text-decoration="none" x="200" y="0">UNREGISTERED</text><text fill="#eeeeee" stroke="none" font-family="Arial" font-size="24px" font-style="normal" font-weight="normal" text-decoration="none" x="200" y="30">UNREGISTERED</text><text fill="#eeeeee" stroke="none" font-family="Arial" font-size="24px" font-style="normal" font-weight="normal" text-decoration="none" x="200" y="60">UNREGISTERED</text><text fill="#eeeeee" stroke="none" font-family="Arial" font-size="24px" font-style="normal" font-weight="normal" text-decoration="none" x="200" y="90">UNREGISTERED</text><text fill="#eeeeee" stroke="none" font-family="Arial" font-size="24px" font-style="normal" font-weight="normal" text-decoration="none" x="200" y="120">UNREGISTERED</text><text fill="#eeeeee" stroke="none" font-family="Arial" font-size="24px" font-style="normal" font-weight="normal" text-decoration="none" x="200" y="150">UNREGISTERED</text><text fill="#eeeeee" stroke="none" font-family="Arial" font-size="24px" font-style="normal" font-weight="normal" text-decoration="none" x="200" y="180">UNREGISTERED</text><text fill="#eeeeee" stroke="none" font-family="Arial" font-size="24px" font-style="normal" font-weight="normal" text-decoration="none" x="200" y="210">UNREGISTERED</text><text fill="#eeeeee" stroke="none" font-family="Arial" font-size="24px" font-style="normal" font-weight="normal" text-decoration="none" x="200" y="240">UNREGISTERED</text><text fill="#eeeeee" stroke="none" font-family="Arial" font-size="24px" font-style="normal" font-weight="normal" text-decoration="none" x="200" y="270">UNREGISTERED</text><text fill="#eeeeee" stroke="none" font-family="Arial" font-size="24px" font-style="normal" font-weight="normal" text-decoration="none" x="200" y="300">UNREGISTERED</text><text fill="#eeeeee" stroke="none" font-family="Arial" font-size="24px" font-style="normal" font-weight="normal" text-decoration="none" x="200" y="330">UNREGISTERED</text><text fill="#eeeeee" stroke="none" font-family="Arial" font-size="24px" font-style="normal" font-weight="normal" text-decoration="none" x="200" y="360">UNREGISTERED</text><text fill="#eeeeee" stroke="none" font-family="Arial" font-size="24px" font-style="normal" font-weight="normal" text-decoration="none" x="200" y="390">UNREGISTERED</text><text fill="#eeeeee" stroke="none" font-family="Arial" font-size="24px" font-style="normal" font-weight="normal" text-decoration="none" x="200" y="420">UNREGISTERED</text><text fill="#eeeeee" stroke="none" font-family="Arial" font-size="24px" font-style="normal" font-weight="normal" text-decoration="none" x="200" y="450">UNREGISTERED</text><text fill="#eeeeee" stroke="none" font-family="Arial" font-size="24px" font-style="normal" font-weight="normal" text-decoration="none" x="400" y="0">UNREGISTERED</text><text fill="#eeeeee" stroke="none" font-family="Arial" font-size="24px" font-style="normal" font-weight="normal" text-decoration="none" x="400" y="30">UNREGISTERED</text><text fill="#eeeeee" stroke="none" font-family="Arial" font-size="24px" font-style="normal" font-weight="normal" text-decoration="none" x="400" y="60">UNREGISTERED</text><text fill="#eeeeee" stroke="none" font-family="Arial" font-size="24px" font-style="normal" font-weight="normal" text-decoration="none" x="400" y="90">UNREGISTERED</text><text fill="#eeeeee" stroke="none" font-family="Arial" font-size="24px" font-style="normal" font-weight="normal" text-decoration="none" x="400" y="120">UNREGISTERED</text><text fill="#eeeeee" stroke="none" font-family="Arial" font-size="24px" font-style="normal" font-weight="normal" text-decoration="none" x="400" y="150">UNREGISTERED</text><text fill="#eeeeee" stroke="none" font-family="Arial" font-size="24px" font-style="normal" font-weight="normal" text-decoration="none" x="400" y="180">UNREGISTERED</text><text fill="#eeeeee" stroke="none" font-family="Arial" font-size="24px" font-style="normal" font-weight="normal" text-decoration="none" x="400" y="210">UNREGISTERED</text><text fill="#eeeeee" stroke="none" font-family="Arial" font-size="24px" font-style="normal" font-weight="normal" text-decoration="none" x="400" y="240">UNREGISTERED</text><text fill="#eeeeee" stroke="none" font-family="Arial" font-size="24px" font-style="normal" font-weight="normal" text-decoration="none" x="400" y="270">UNREGISTERED</text><text fill="#eeeeee" stroke="none" font-family="Arial" font-size="24px" font-style="normal" font-weight="normal" text-decoration="none" x="400" y="300">UNREGISTERED</text><text fill="#eeeeee" stroke="none" font-family="Arial" font-size="24px" font-style="normal" font-weight="normal" text-decoration="none" x="400" y="330">UNREGISTERED</text><text fill="#eeeeee" stroke="none" font-family="Arial" font-size="24px" font-style="normal" font-weight="normal" text-decoration="none" x="400" y="360">UNREGISTERED</text><text fill="#eeeeee" stroke="none" font-family="Arial" font-size="24px" font-style="normal" font-weight="normal" text-decoration="none" x="400" y="390">UNREGISTERED</text><text fill="#eeeeee" stroke="none" font-family="Arial" font-size="24px" font-style="normal" font-weight="normal" text-decoration="none" x="400" y="420">UNREGISTERED</text><text fill="#eeeeee" stroke="none" font-family="Arial" font-size="24px" font-style="normal" font-weight="normal" text-decoration="none" x="400" y="450">UNREGISTERED</text><text fill="#eeeeee" stroke="none" font-family="Arial" font-size="24px" font-style="normal" font-weight="normal" text-decoration="none" x="600" y="0">UNREGISTERED</text><text fill="#eeeeee" stroke="none" font-family="Arial" font-size="24px" font-style="normal" font-weight="normal" text-decoration="none" x="600" y="30">UNREGISTERED</text><text fill="#eeeeee" stroke="none" font-family="Arial" font-size="24px" font-style="normal" font-weight="normal" text-decoration="none" x="600" y="60">UNREGISTERED</text><text fill="#eeeeee" stroke="none" font-family="Arial" font-size="24px" font-style="normal" font-weight="normal" text-decoration="none" x="600" y="90">UNREGISTERED</text><text fill="#eeeeee" stroke="none" font-family="Arial" font-size="24px" font-style="normal" font-weight="normal" text-decoration="none" x="600" y="120">UNREGISTERED</text><text fill="#eeeeee" stroke="none" font-family="Arial" font-size="24px" font-style="normal" font-weight="normal" text-decoration="none" x="600" y="150">UNREGISTERED</text><text fill="#eeeeee" stroke="none" font-family="Arial" font-size="24px" font-style="normal" font-weight="normal" text-decoration="none" x="600" y="180">UNREGISTERED</text><text fill="#eeeeee" stroke="none" font-family="Arial" font-size="24px" font-style="normal" font-weight="normal" text-decoration="none" x="600" y="210">UNREGISTERED</text><text fill="#eeeeee" stroke="none" font-family="Arial" font-size="24px" font-style="normal" font-weight="normal" text-decoration="none" x="600" y="240">UNREGISTERED</text><text fill="#eeeeee" stroke="none" font-family="Arial" font-size="24px" font-style="normal" font-weight="normal" text-decoration="none" x="600" y="270">UNREGISTERED</text><text fill="#eeeeee" stroke="none" font-family="Arial" font-size="24px" font-style="normal" font-weight="normal" text-decoration="none" x="600" y="300">UNREGISTERED</text><text fill="#eeeeee" stroke="none" font-family="Arial" font-size="24px" font-style="normal" font-weight="normal" text-decoration="none" x="600" y="330">UNREGISTERED</text><text fill="#eeeeee" stroke="none" font-family="Arial" font-size="24px" font-style="normal" font-weight="normal" text-decoration="none" x="600" y="360">UNREGISTERED</text><text fill="#eeeeee" stroke="none" font-family="Arial" font-size="24px" font-style="normal" font-weight="normal" text-decoration="none" x="600" y="390">UNREGISTERED</text><text fill="#eeeeee" stroke="none" font-family="Arial" font-size="24px" font-style="normal" font-weight="normal" text-decoration="none" x="600" y="420">UNREGISTERED</text><text fill="#eeeeee" stroke="none" font-family="Arial" font-size="24px" font-style="normal" font-weight="normal" text-decoration="none" x="600" y="450">UNREGISTERED</text><text fill="#eeeeee" stroke="none" font-family="Arial" font-size="24px" font-style="normal" font-weight="normal" text-decoration="none" x="800" y="0">UNREGISTERED</text><text fill="#eeeeee" stroke="none" font-family="Arial" font-size="24px" font-style="normal" font-weight="normal" text-decoration="none" x="800" y="30">UNREGISTERED</text><text fill="#eeeeee" stroke="none" font-family="Arial" font-size="24px" font-style="normal" font-weight="normal" text-decoration="none" x="800" y="60">UNREGISTERED</text><text fill="#eeeeee" stroke="none" font-family="Arial" font-size="24px" font-style="normal" font-weight="normal" text-decoration="none" x="800" y="90">UNREGISTERED</text><text fill="#eeeeee" stroke="none" font-family="Arial" font-size="24px" font-style="normal" font-weight="normal" text-decoration="none" x="800" y="120">UNREGISTERED</text><text fill="#eeeeee" stroke="none" font-family="Arial" font-size="24px" font-style="normal" font-weight="normal" text-decoration="none" x="800" y="150">UNREGISTERED</text><text fill="#eeeeee" stroke="none" font-family="Arial" font-size="24px" font-style="normal" font-weight="normal" text-decoration="none" x="800" y="180">UNREGISTERED</text><text fill="#eeeeee" stroke="none" font-family="Arial" font-size="24px" font-style="normal" font-weight="normal" text-decoration="none" x="800" y="210">UNREGISTERED</text><text fill="#eeeeee" stroke="none" font-family="Arial" font-size="24px" font-style="normal" font-weight="normal" text-decoration="none" x="800" y="240">UNREGISTERED</text><text fill="#eeeeee" stroke="none" font-family="Arial" font-size="24px" font-style="normal" font-weight="normal" text-decoration="none" x="800" y="270">UNREGISTERED</text><text fill="#eeeeee" stroke="none" font-family="Arial" font-size="24px" font-style="normal" font-weight="normal" text-decoration="none" x="800" y="300">UNREGISTERED</text><text fill="#eeeeee" stroke="none" font-family="Arial" font-size="24px" font-style="normal" font-weight="normal" text-decoration="none" x="800" y="330">UNREGISTERED</text><text fill="#eeeeee" stroke="none" font-family="Arial" font-size="24px" font-style="normal" font-weight="normal" text-decoration="none" x="800" y="360">UNREGISTERED</text><text fill="#eeeeee" stroke="none" font-family="Arial" font-size="24px" font-style="normal" font-weight="normal" text-decoration="none" x="800" y="390">UNREGISTERED</text><text fill="#eeeeee" stroke="none" font-family="Arial" font-size="24px" font-style="normal" font-weight="normal" text-decoration="none" x="800" y="420">UNREGISTERED</text><text fill="#eeeeee" stroke="none" font-family="Arial" font-size="24px" font-style="normal" font-weight="normal" text-decoration="none" x="800" y="450">UNREGISTERED</text><text fill="#eeeeee" stroke="none" font-family="Arial" font-size="24px" font-style="normal" font-weight="normal" text-decoration="none" x="1000" y="0">UNREGISTERED</text><text fill="#eeeeee" stroke="none" font-family="Arial" font-size="24px" font-style="normal" font-weight="normal" text-decoration="none" x="1000" y="30">UNREGISTERED</text><text fill="#eeeeee" stroke="none" font-family="Arial" font-size="24px" font-style="normal" font-weight="normal" text-decoration="none" x="1000" y="60">UNREGISTERED</text><text fill="#eeeeee" stroke="none" font-family="Arial" font-size="24px" font-style="normal" font-weight="normal" text-decoration="none" x="1000" y="90">UNREGISTERED</text><text fill="#eeeeee" stroke="none" font-family="Arial" font-size="24px" font-style="normal" font-weight="normal" text-decoration="none" x="1000" y="120">UNREGISTERED</text><text fill="#eeeeee" stroke="none" font-family="Arial" font-size="24px" font-style="normal" font-weight="normal" text-decoration="none" x="1000" y="150">UNREGISTERED</text><text fill="#eeeeee" stroke="none" font-family="Arial" font-size="24px" font-style="normal" font-weight="normal" text-decoration="none" x="1000" y="180">UNREGISTERED</text><text fill="#eeeeee" stroke="none" font-family="Arial" font-size="24px" font-style="normal" font-weight="normal" text-decoration="none" x="1000" y="210">UNREGISTERED</text><text fill="#eeeeee" stroke="none" font-family="Arial" font-size="24px" font-style="normal" font-weight="normal" text-decoration="none" x="1000" y="240">UNREGISTERED</text><text fill="#eeeeee" stroke="none" font-family="Arial" font-size="24px" font-style="normal" font-weight="normal" text-decoration="none" x="1000" y="270">UNREGISTERED</text><text fill="#eeeeee" stroke="none" font-family="Arial" font-size="24px" font-style="normal" font-weight="normal" text-decoration="none" x="1000" y="300">UNREGISTERED</text><text fill="#eeeeee" stroke="none" font-family="Arial" font-size="24px" font-style="normal" font-weight="normal" text-decoration="none" x="1000" y="330">UNREGISTERED</text><text fill="#eeeeee" stroke="none" font-family="Arial" font-size="24px" font-style="normal" font-weight="normal" text-decoration="none" x="1000" y="360">UNREGISTERED</text><text fill="#eeeeee" stroke="none" font-family="Arial" font-size="24px" font-style="normal" font-weight="normal" text-decoration="none" x="1000" y="390">UNREGISTERED</text><text fill="#eeeeee" stroke="none" font-family="Arial" font-size="24px" font-style="normal" font-weight="normal" text-decoration="none" x="1000" y="420">UNREGISTERED</text><text fill="#eeeeee" stroke="none" font-family="Arial" font-size="24px" font-style="normal" font-weight="normal" text-decoration="none" x="1000" y="450">UNREGISTERED</text><g transform="translate(12,2) scale(1,1)"><rect fill="#d8e5ff" stroke="none" x="344" y="280" width="639" height="159"/></g><g transform="translate(12,2) scale(1,1)"><path fill="none" stroke="#000000" d="M 344 280 L 983 280 L 983 439 L 344 439 L 344 280 Z Z" stroke-miterlimit="10"/></g><g transform="translate(12,2) scale(1,1)"><rect fill="#ffe2d8" stroke="none" x="352" y="56" width="631" height="207"/></g><g transform="translate(12,2) scale(1,1)"><path fill="none" stroke="#000000" d="M 352 56 L 983 56 L 983 263 L 352 263 L 352 56 Z Z" stroke-miterlimit="10"/></g><g transform="translate(12,2) scale(1,1)"><rect fill="#ffffd8" stroke="none" x="8" y="72" width="335" height="184"/></g><g transform="translate(12,2) scale(1,1)"><path fill="none" stroke="#000000" d="M 8 72 L 343 72 L 343 256 L 8 256 L 8 72 Z Z" stroke-miterlimit="10"/></g><g transform="translate(12,2) scale(1,1)"><rect fill="#C0C0C0" stroke="none" x="367" y="151" width="53.1923828125" height="44" opacity="0.2"/></g><g transform="translate(12,2) scale(1,1)"><rect fill="#ffffff" stroke="none" x="360" y="144" width="53.1923828125" height="44"/></g><g transform="translate(12,2) scale(1,1)"><path fill="none" stroke="#000000" d="M 360 144 L 413.1923828125 144 L 413.1923828125 188 L 360 188 L 360 144 Z Z" stroke-miterlimit="10"/></g><g transform="translate(12,2) scale(1,1)"><path fill="none" stroke="#000000" d="M 360 169 L 413.1923828125 169" stroke-miterlimit="10"/></g><g transform="translate(12,2) scale(1,1)"><path fill="none" stroke="#000000" d="M 360 179 L 413.1923828125 179" stroke-miterlimit="10"/></g><g transform="translate(12,2) scale(1,1)"><g><path fill="none" stroke="none"/><text fill="#000000" stroke="none" font-family="Arial" font-size="13px" font-style="normal" font-weight="bold" text-decoration="none" x="366.020263671875" y="162">Config</text></g></g><g transform="translate(12,2) scale(1,1)"><rect fill="#C0C0C0" stroke="none" x="935" y="71" width="50.919921875" height="44" opacity="0.2"/></g><g transform="translate(12,2) scale(1,1)"><rect fill="#ffffff" stroke="none" x="928" y="64" width="50.919921875" height="44"/></g><g transform="translate(12,2) scale(1,1)"><path fill="none" stroke="#000000" d="M 928 64 L 978.919921875 64 L 978.919921875 108 L 928 108 L 928 64 Z Z" stroke-miterlimit="10"/></g><g transform="translate(12,2) scale(1,1)"><path fill="none" stroke="#000000" d="M 928 89 L 978.919921875 89" stroke-miterlimit="10"/></g><g transform="translate(12,2) scale(1,1)"><path fill="none" stroke="#000000" d="M 928 99 L 978.919921875 99" stroke-miterlimit="10"/></g><g transform="translate(12,2) scale(1,1)"><g><path fill="none" stroke="none"/><text fill="#000000" stroke="none" font-family="Arial" font-size="13px" font-style="normal" font-weight="bold" text-decoration="none" x="941.180419921875" y="82">Stm</text></g></g><g transform="translate(12,2) scale(1,1)"><rect fill="#C0C0C0" stroke="none" x="503" y="79" width="176.2734375" height="57" opacity="0.2"/></g><g transform="translate(12,2) scale(1,1)"><rect fill="#ffffff" stroke="none" x="496" y="72" width="176.2734375" height="57"/></g><g transform="translate(12,2) scale(1,1)"><path fill="none" stroke="#000000" d="M 496 72 L 672.2734375 72 L 672.2734375 129 L 496 129 L 496 72 Z Z" stroke-miterlimit="10"/></g><g transform="translate(12,2) scale(1,1)"><path fill="none" stroke="#000000" d="M 496 97 L 672.2734375 97" stroke-miterlimit="10"/></g><g transform="translate(12,2) scale(1,1)"><path fill="none" stroke="#000000" d="M 496 120 L 672.2734375 120" stroke-miterlimit="10"/></g><g transform="translate(12,2) scale(1,1)"><g><path fill="none" stroke="none"/><text fill="#000000" stroke="none" font-family="Arial" font-size="13px" font-style="normal" font-weight="bold" text-decoration="none" x="572.580810546875" y="90">Job</text></g></g><g transform="translate(12,2) scale(1,1)"><g><path fill="none" stroke="none"/><text fill="#000000" stroke="none" font-family="Arial" font-size="13px" font-style="normal" font-weight="normal" text-decoration="none" x="501" y="113">+command: List&lt;Command&gt;</text></g></g><g transform="translate(12,2) scale(1,1)"><rect fill="#C0C0C0" stroke="none" x="511" y="159" width="156.04345703125" height="72" opacity="0.2"/></g><g transform="translate(12,2) scale(1,1)"><rect fill="#ffffff" stroke="none" x="504" y="152" width="156.04345703125" height="72"/></g><g transform="translate(12,2) scale(1,1)"><path fill="none" stroke="#000000" d="M 504 152 L 660.04345703125 152 L 660.04345703125 224 L 504 224 L 504 152 Z Z" stroke-miterlimit="10"/></g><g transform="translate(12,2) scale(1,1)"><path fill="none" stroke="#000000" d="M 504 177 L 660.04345703125 177" stroke-miterlimit="10"/></g><g transform="translate(12,2) scale(1,1)"><path fill="none" stroke="#000000" d="M 504 215 L 660.04345703125 215" stroke-miterlimit="10"/></g><g transform="translate(12,2) scale(1,1)"><g><path fill="none" stroke="none"/><text fill="#000000" stroke="none" font-family="Arial" font-size="13px" font-style="normal" font-weight="bold" text-decoration="none" x="565.77490234375" y="170">Shop</text></g></g><g transform="translate(12,2) scale(1,1)"><g><path fill="none" stroke="none"/><text fill="#000000" stroke="none" font-family="Arial" font-size="13px" font-style="normal" font-weight="normal" text-decoration="none" x="509" y="193">+ProductList: List&lt;Items&gt;</text></g></g><g transform="translate(12,2) scale(1,1)"><g><path fill="none" stroke="none"/><text fill="#000000" stroke="none" font-family="Arial" font-size="13px" font-style="normal" font-weight="normal" text-decoration="none" x="509" y="208">+shopId: int</text></g></g><g transform="translate(12,2) scale(1,1)"><rect fill="#C0C0C0" stroke="none" x="367" y="79" width="64.884765625" height="44" opacity="0.2"/></g><g transform="translate(12,2) scale(1,1)"><rect fill="#ffffff" stroke="none" x="360" y="72" width="64.884765625" height="44"/></g><g transform="translate(12,2) scale(1,1)"><path fill="none" stroke="#000000" d="M 360 72 L 424.884765625 72 L 424.884765625 116 L 360 116 L 360 72 Z Z" stroke-miterlimit="10"/></g><g transform="translate(12,2) scale(1,1)"><path fill="none" stroke="#000000" d="M 360 97 L 424.884765625 97" stroke-miterlimit="10"/></g><g transform="translate(12,2) scale(1,1)"><path fill="none" stroke="#000000" d="M 360 107 L 424.884765625 107" stroke-miterlimit="10"/></g><g transform="translate(12,2) scale(1,1)"><g><path fill="none" stroke="none"/><text fill="#000000" stroke="none" font-family="Arial" font-size="13px" font-style="normal" font-weight="bold" text-decoration="none" x="367.162841796875" y="90">Monster</text></g></g><g transform="translate(12,2) scale(1,1)"><rect fill="#C0C0C0" stroke="none" x="767" y="71" width="124.2353515625" height="72" opacity="0.2"/></g><g transform="translate(12,2) scale(1,1)"><rect fill="#ffffff" stroke="none" x="760" y="64" width="124.2353515625" height="72"/></g><g transform="translate(12,2) scale(1,1)"><path fill="none" stroke="#000000" d="M 760 64 L 884.2353515625 64 L 884.2353515625 136 L 760 136 L 760 64 Z Z" stroke-miterlimit="10"/></g><g transform="translate(12,2) scale(1,1)"><path fill="none" stroke="#000000" d="M 760 89 L 884.2353515625 89" stroke-miterlimit="10"/></g><g transform="translate(12,2) scale(1,1)"><path fill="none" stroke="#000000" d="M 760 127 L 884.2353515625 127" stroke-miterlimit="10"/></g><g transform="translate(12,2) scale(1,1)"><g><path fill="none" stroke="none"/><text fill="#000000" stroke="none" font-family="Arial" font-size="13px" font-style="normal" font-weight="bold" text-decoration="none" x="790.338134765625" y="82">Command</text></g></g><g transform="translate(12,2) scale(1,1)"><g><path fill="none" stroke="none"/><text fill="#000000" stroke="none" font-family="Arial" font-size="13px" font-style="normal" font-weight="normal" text-decoration="none" x="765" y="105">+stmList: LIst&lt;Stm&gt;</text></g></g><g transform="translate(12,2) scale(1,1)"><g><path fill="none" stroke="none"/><text fill="#000000" stroke="none" font-family="Arial" font-size="13px" font-style="normal" font-weight="normal" text-decoration="none" x="765" y="120">+hasChild: boolean</text></g></g><g transform="translate(12,2) scale(1,1)"><rect fill="#C0C0C0" stroke="none" x="31" y="303" width="83.0771484375" height="57" opacity="0.2"/></g><g transform="translate(12,2) scale(1,1)"><rect fill="#ffffff" stroke="none" x="24" y="296" width="83.0771484375" height="57"/></g><g transform="translate(12,2) scale(1,1)"><path fill="none" stroke="#000000" d="M 24 296 L 107.0771484375 296 L 107.0771484375 353 L 24 353 L 24 296 Z Z" stroke-miterlimit="10"/></g><g transform="translate(12,2) scale(1,1)"><path fill="none" stroke="#000000" d="M 24 321 L 107.0771484375 321" stroke-miterlimit="10"/></g><g transform="translate(12,2) scale(1,1)"><path fill="none" stroke="#000000" d="M 24 344 L 107.0771484375 344" stroke-miterlimit="10"/></g><g transform="translate(12,2) scale(1,1)"><g><path fill="none" stroke="none"/><text fill="#000000" stroke="none" font-family="Arial" font-size="13px" font-style="normal" font-weight="bold" text-decoration="none" x="46.3876953125" y="314">Scene</text></g></g><g transform="translate(12,2) scale(1,1)"><g><path fill="none" stroke="none"/><text fill="#000000" stroke="none" font-family="Arial" font-size="13px" font-style="normal" font-weight="normal" text-decoration="none" x="29" y="337">+sceneId: int</text></g></g><g transform="translate(12,2) scale(1,1)"><rect fill="#C0C0C0" stroke="none" x="23" y="135" width="92.5478515625" height="87" opacity="0.2"/></g><g transform="translate(12,2) scale(1,1)"><rect fill="#ffffff" stroke="none" x="16" y="128" width="92.5478515625" height="87"/></g><g transform="translate(12,2) scale(1,1)"><path fill="none" stroke="#000000" d="M 16 128 L 108.5478515625 128 L 108.5478515625 215 L 16 215 L 16 128 Z Z" stroke-miterlimit="10"/></g><g transform="translate(12,2) scale(1,1)"><path fill="none" stroke="#000000" d="M 16 153 L 108.5478515625 153" stroke-miterlimit="10"/></g><g transform="translate(12,2) scale(1,1)"><path fill="none" stroke="#000000" d="M 16 163 L 108.5478515625 163" stroke-miterlimit="10"/></g><g transform="translate(12,2) scale(1,1)"><g><path fill="none" stroke="none"/><text fill="#000000" stroke="none" font-family="Arial" font-size="13px" font-style="normal" font-weight="bold" text-decoration="none" x="20.5" y="146">TextRPGMain</text></g></g><g transform="translate(12,2) scale(1,1)"><g><path fill="none" stroke="none"/><text fill="#000000" stroke="none" font-family="Arial" font-size="13px" font-style="normal" font-weight="normal" text-decoration="none" x="21" y="179">+main()</text><path fill="none" stroke="#000000" d="M 21 180.5 L 65.42724609375 180.5" stroke-miterlimit="10"/></g></g><g transform="translate(12,2) scale(1,1)"><g><path fill="none" stroke="none"/><text fill="#000000" stroke="none" font-family="Arial" font-size="13px" font-style="normal" font-weight="normal" text-decoration="none" x="21" y="194">-loadConfig()</text></g></g><g transform="translate(12,2) scale(1,1)"><g><path fill="none" stroke="none"/><text fill="#000000" stroke="none" font-family="Arial" font-size="13px" font-style="normal" font-weight="normal" text-decoration="none" x="21" y="209">+loadStory()</text></g></g><g transform="translate(12,2) scale(1,1)"><rect fill="#C0C0C0" stroke="none" x="143" y="95" width="69.4423828125" height="44" opacity="0.2"/></g><g transform="translate(12,2) scale(1,1)"><rect fill="#ffffff" stroke="none" x="136" y="88" width="69.4423828125" height="44"/></g><g transform="translate(12,2) scale(1,1)"><path fill="none" stroke="#000000" d="M 136 88 L 205.4423828125 88 L 205.4423828125 132 L 136 132 L 136 88 Z Z" stroke-miterlimit="10"/></g><g transform="translate(12,2) scale(1,1)"><path fill="none" stroke="#000000" d="M 136 113 L 205.4423828125 113" stroke-miterlimit="10"/></g><g transform="translate(12,2) scale(1,1)"><path fill="none" stroke="#000000" d="M 136 123 L 205.4423828125 123" stroke-miterlimit="10"/></g><g transform="translate(12,2) scale(1,1)"><g><path fill="none" stroke="none"/><text fill="#000000" stroke="none" font-family="Arial" font-size="13px" font-style="normal" font-weight="bold" text-decoration="none" x="140.5" y="106">TitleLabel</text></g></g><g transform="translate(12,2) scale(1,1)"><rect fill="#C0C0C0" stroke="none" x="239" y="95" width="88.9423828125" height="44" opacity="0.2"/></g><g transform="translate(12,2) scale(1,1)"><rect fill="#ffffff" stroke="none" x="232" y="88" width="88.9423828125" height="44"/></g><g transform="translate(12,2) scale(1,1)"><path fill="none" stroke="#000000" d="M 232 88 L 320.9423828125 88 L 320.9423828125 132 L 232 132 L 232 88 Z Z" stroke-miterlimit="10"/></g><g transform="translate(12,2) scale(1,1)"><path fill="none" stroke="#000000" d="M 232 113 L 320.9423828125 113" stroke-miterlimit="10"/></g><g transform="translate(12,2) scale(1,1)"><path fill="none" stroke="#000000" d="M 232 123 L 320.9423828125 123" stroke-miterlimit="10"/></g><g transform="translate(12,2) scale(1,1)"><g><path fill="none" stroke="none"/><text fill="#000000" stroke="none" font-family="Arial" font-size="13px" font-style="normal" font-weight="bold" text-decoration="none" x="236.5" y="106">RpgTextArae</text></g></g><g transform="translate(12,2) scale(1,1)"><path fill="none" stroke="#000000" d="M 110 162 L 168 152 L 169 133" stroke-miterlimit="10"/></g><g transform="translate(12,2) scale(1,1)"><path fill="none" stroke="#000000" d="M 110 167 L 280 152 L 278 133" stroke-miterlimit="10"/></g><g transform="translate(12,2) scale(1,1)"><path fill="#ffffd8" stroke="none" d="M 344 8 L 495 8 L 505 18 L 505 31 L 344 31 L 344 8"/></g><g transform="translate(12,2) scale(1,1)"><path fill="none" stroke="#000000" d="M 344 8 L 495 8 L 505 18 L 505 31 L 344 31 L 344 8 L 344 8" stroke-miterlimit="10"/></g><g transform="translate(12,2) scale(1,1)"><path fill="none" stroke="#000000" d="M 495 8 L 495 18 L 505 18 L 495 8" stroke-miterlimit="10"/></g><g transform="translate(12,2) scale(1,1)"><g><path fill="none" stroke="none"/><text fill="#000000" stroke="none" font-family="Arial" font-size="13px" font-style="normal" font-weight="normal" text-decoration="none" x="349" y="24">画面表示コンポーネント</text></g></g><g transform="translate(12,2) scale(1,1)"><path fill="none" stroke="#000000" d="M 336 71 L 402 33" stroke-miterlimit="10" stroke-dasharray="3"/></g><g transform="translate(12,2) scale(1,1)"><rect fill="#C0C0C0" stroke="none" x="39" y="15" width="55.2490234375" height="44" opacity="0.2"/></g><g transform="translate(12,2) scale(1,1)"><rect fill="#ffffff" stroke="none" x="32" y="8" width="55.2490234375" height="44"/></g><g transform="translate(12,2) scale(1,1)"><path fill="none" stroke="#000000" d="M 32 8 L 87.2490234375 8 L 87.2490234375 52 L 32 52 L 32 8 Z Z" stroke-miterlimit="10"/></g><g transform="translate(12,2) scale(1,1)"><path fill="none" stroke="#000000" d="M 32 33 L 87.2490234375 33" stroke-miterlimit="10"/></g><g transform="translate(12,2) scale(1,1)"><path fill="none" stroke="#000000" d="M 32 43 L 87.2490234375 43" stroke-miterlimit="10"/></g><g transform="translate(12,2) scale(1,1)"><g><path fill="none" stroke="none"/><text fill="#000000" stroke="none" font-family="Arial" font-size="13px" font-style="normal" font-weight="bold" text-decoration="none" x="36.5" y="26">JFrame</text></g></g><g transform="translate(12,2) scale(1,1)"><path fill="none" stroke="#000000" d="M 61 127 L 59 53" stroke-miterlimit="10"/></g><g transform="translate(12,2) scale(1,1)"><path fill="#FFFFFF" stroke="none" d="M 67.96509556313823 73.09047190943505 L 59 53 L 51.1331709422811 73.54538879107986"/></g><g transform="translate(12,2) scale(1,1)"><path fill="none" stroke="#000000" d="M 67.96509556313823 73.09047190943505 L 59 53 L 51.1331709422811 73.54538879107986 L 67.96509556313823 73.09047190943505" stroke-miterlimit="10"/></g><g transform="translate(12,2) scale(1,1)"><g><path fill="none" stroke="none"/><text fill="#000000" stroke="none" font-family="Arial" font-size="13px" font-style="normal" font-weight="normal" text-decoration="none" x="71.5" y="101">+extends</text></g></g><g transform="translate(12,2) scale(1,1)"><rect fill="#C0C0C0" stroke="none" x="151" y="15" width="50.919921875" height="44" opacity="0.2"/></g><g transform="translate(12,2) scale(1,1)"><rect fill="#ffffff" stroke="none" x="144" y="8" width="50.919921875" height="44"/></g><g transform="translate(12,2) scale(1,1)"><path fill="none" stroke="#000000" d="M 144 8 L 194.919921875 8 L 194.919921875 52 L 144 52 L 144 8 Z Z" stroke-miterlimit="10"/></g><g transform="translate(12,2) scale(1,1)"><path fill="none" stroke="#000000" d="M 144 33 L 194.919921875 33" stroke-miterlimit="10"/></g><g transform="translate(12,2) scale(1,1)"><path fill="none" stroke="#000000" d="M 144 43 L 194.919921875 43" stroke-miterlimit="10"/></g><g transform="translate(12,2) scale(1,1)"><g><path fill="none" stroke="none"/><text fill="#000000" stroke="none" font-family="Arial" font-size="13px" font-style="normal" font-weight="bold" text-decoration="none" x="148.8681640625" y="26">JLabel</text></g></g><g transform="translate(12,2) scale(1,1)"><rect fill="#C0C0C0" stroke="none" x="255" y="15" width="70.90234375" height="44" opacity="0.2"/></g><g transform="translate(12,2) scale(1,1)"><rect fill="#ffffff" stroke="none" x="248" y="8" width="70.90234375" height="44"/></g><g transform="translate(12,2) scale(1,1)"><path fill="none" stroke="#000000" d="M 248 8 L 318.90234375 8 L 318.90234375 52 L 248 52 L 248 8 Z Z" stroke-miterlimit="10"/></g><g transform="translate(12,2) scale(1,1)"><path fill="none" stroke="#000000" d="M 248 33 L 318.90234375 33" stroke-miterlimit="10"/></g><g transform="translate(12,2) scale(1,1)"><path fill="none" stroke="#000000" d="M 248 43 L 318.90234375 43" stroke-miterlimit="10"/></g><g transform="translate(12,2) scale(1,1)"><g><path fill="none" stroke="none"/><text fill="#000000" stroke="none" font-family="Arial" font-size="13px" font-style="normal" font-weight="bold" text-decoration="none" x="252.5" y="26">JTextArea</text></g></g><g transform="translate(12,2) scale(1,1)"><path fill="none" stroke="#000000" d="M 170 87 L 169 53" stroke-miterlimit="10"/></g><g transform="translate(12,2) scale(1,1)"><path fill="#FFFFFF" stroke="none" d="M 178.01294242662254 73.06905251411703 L 169 53 L 161.18214958358766 73.56407583302982"/></g><g transform="translate(12,2) scale(1,1)"><path fill="none" stroke="#000000" d="M 178.01294242662254 73.06905251411703 L 169 53 L 161.18214958358766 73.56407583302982 L 178.01294242662254 73.06905251411703" stroke-miterlimit="10"/></g><g transform="translate(12,2) scale(1,1)"><path fill="none" stroke="#000000" d="M 278 87 L 281 53" stroke-miterlimit="10"/></g><g transform="translate(12,2) scale(1,1)"><path fill="#FFFFFF" stroke="none" d="M 287.5999801498796 73.98666867373655 L 281 53 L 270.8270749859621 72.50670645339089"/></g><g transform="translate(12,2) scale(1,1)"><path fill="none" stroke="#000000" d="M 287.5999801498796 73.98666867373655 L 281 53 L 270.8270749859621 72.50670645339089 L 287.5999801498796 73.98666867373655" stroke-miterlimit="10"/></g><g transform="translate(12,2) scale(1,1)"><path fill="none" stroke="#000000" d="M 110 170 L 359 166" stroke-miterlimit="10"/></g><g transform="translate(12,2) scale(1,1)"><path fill="none" stroke="#000000" d="M 63 216 L 64 295" stroke-miterlimit="10"/></g><g transform="translate(12,2) scale(1,1)"><g><path fill="none" stroke="none"/><text fill="#000000" stroke="none" font-family="Arial" font-size="13px" font-style="normal" font-weight="normal" text-decoration="none" x="-2.5" y="278.5">+generate</text></g></g><g transform="translate(12,2) scale(1,1)"><path fill="none" stroke="#000000" d="M 426 95 L 495 97" stroke-miterlimit="10"/></g><g transform="translate(12,2) scale(1,1)"><path fill="#FFFFFF" stroke="none" d="M 474.4392556102278 104.8266078308838 L 495 97 L 474.92711074484316 87.9956056866545"/></g><g transform="translate(12,2) scale(1,1)"><path fill="none" stroke="#000000" d="M 474.4392556102278 104.8266078308838 L 495 97 L 474.92711074484316 87.9956056866545 L 474.4392556102278 104.8266078308838" stroke-miterlimit="10"/></g><g transform="translate(12,2) scale(1,1)"><g><path fill="none" stroke="none"/><text fill="#000000" stroke="none" font-family="Arial" font-size="13px" font-style="normal" font-weight="normal" text-decoration="none" x="433.5" y="86">+extends</text></g></g><g transform="translate(12,2) scale(1,1)"><path fill="none" stroke="#000000" d="M 673 100 L 759 100" stroke-miterlimit="10"/></g><g transform="translate(12,2) scale(1,1)"><g><path fill="none" stroke="none"/><text fill="#000000" stroke="none" font-family="Arial" font-size="13px" font-style="normal" font-weight="normal" text-decoration="none" x="687.5" y="89.5">+property</text></g></g><g transform="translate(12,2) scale(1,1)"><path fill="none" stroke="#000000" d="M 885 93 L 927 89" stroke-miterlimit="10"/></g><g transform="translate(12,2) scale(1,1)"><rect fill="#C0C0C0" stroke="none" x="719" y="159" width="50.919921875" height="44" opacity="0.2"/></g><g transform="translate(12,2) scale(1,1)"><rect fill="#ffffff" stroke="none" x="712" y="152" width="50.919921875" height="44"/></g><g transform="translate(12,2) scale(1,1)"><path fill="none" stroke="#000000" d="M 712 152 L 762.919921875 152 L 762.919921875 196 L 712 196 L 712 152 Z Z" stroke-miterlimit="10"/></g><g transform="translate(12,2) scale(1,1)"><path fill="none" stroke="#000000" d="M 712 177 L 762.919921875 177" stroke-miterlimit="10"/></g><g transform="translate(12,2) scale(1,1)"><path fill="none" stroke="#000000" d="M 712 187 L 762.919921875 187" stroke-miterlimit="10"/></g><g transform="translate(12,2) scale(1,1)"><g><path fill="none" stroke="none"/><text fill="#000000" stroke="none" font-family="Arial" font-size="13px" font-style="normal" font-weight="bold" text-decoration="none" x="720.47998046875" y="170">Items</text></g></g><g transform="translate(12,2) scale(1,1)"><path fill="none" stroke="#000000" d="M 661 181 L 711 176" stroke-miterlimit="10"/></g><g transform="translate(12,2) scale(1,1)"><rect fill="#C0C0C0" stroke="none" x="927" y="167" width="50.919921875" height="44" opacity="0.2"/></g><g transform="translate(12,2) scale(1,1)"><rect fill="#ffffff" stroke="none" x="920" y="160" width="50.919921875" height="44"/></g><g transform="translate(12,2) scale(1,1)"><path fill="none" stroke="#000000" d="M 920 160 L 970.919921875 160 L 970.919921875 204 L 920 204 L 920 160 Z Z" stroke-miterlimit="10"/></g><g transform="translate(12,2) scale(1,1)"><path fill="none" stroke="#000000" d="M 920 185 L 970.919921875 185" stroke-miterlimit="10"/></g><g transform="translate(12,2) scale(1,1)"><path fill="none" stroke="#000000" d="M 920 195 L 970.919921875 195" stroke-miterlimit="10"/></g><g transform="translate(12,2) scale(1,1)"><g><path fill="none" stroke="none"/><text fill="#000000" stroke="none" font-family="Arial" font-size="13px" font-style="normal" font-weight="bold" text-decoration="none" x="927.40087890625" y="178">Effect</text></g></g><g transform="translate(12,2) scale(1,1)"><path fill="none" stroke="#000000" d="M 764 175 L 919 181" stroke-miterlimit="10"/></g><g transform="translate(12,2) scale(1,1)"><path fill="none" stroke="#000000" d="M 951 109 L 947 159" stroke-miterlimit="10"/></g><g transform="translate(12,2) scale(1,1)"><path fill="#ffffff" stroke="none" d="M 688 208 L 908.11328125 208 L 918.11328125 218 L 918.11328125 246 L 688 246 L 688 208"/></g><g transform="translate(12,2) scale(1,1)"><path fill="none" stroke="#000000" d="M 688 208 L 908.11328125 208 L 918.11328125 218 L 918.11328125 246 L 688 246 L 688 208 L 688 208" stroke-miterlimit="10"/></g><g transform="translate(12,2) scale(1,1)"><path fill="none" stroke="#000000" d="M 908.11328125 208 L 908.11328125 218 L 918.11328125 218 L 908.11328125 208" stroke-miterlimit="10"/></g><g transform="translate(12,2) scale(1,1)"><g><path fill="none" stroke="none"/><text fill="#000000" stroke="none" font-family="Arial" font-size="13px" font-style="normal" font-weight="normal" text-decoration="none" x="693" y="224">StmもItemもEffecrで効果を表現する</text></g></g><g transform="translate(12,2) scale(1,1)"><path fill="#ffe2d8" stroke="none" d="M 528 8 L 783 8 L 793 18 L 793 31 L 528 31 L 528 8"/></g><g transform="translate(12,2) scale(1,1)"><path fill="none" stroke="#000000" d="M 528 8 L 783 8 L 793 18 L 793 31 L 528 31 L 528 8 L 528 8" stroke-miterlimit="10"/></g><g transform="translate(12,2) scale(1,1)"><path fill="none" stroke="#000000" d="M 783 8 L 783 18 L 793 18 L 783 8" stroke-miterlimit="10"/></g><g transform="translate(12,2) scale(1,1)"><g><path fill="none" stroke="none"/><text fill="#000000" stroke="none" font-family="Arial" font-size="13px" font-style="normal" font-weight="normal" text-decoration="none" x="533" y="24">設定ファイルの読み込みで生成するクラス</text></g></g><g transform="translate(12,2) scale(1,1)"><path fill="none" stroke="#000000" d="M 663 55 L 662 33" stroke-miterlimit="10" stroke-dasharray="3"/></g><g transform="translate(12,2) scale(1,1)"><rect fill="#C0C0C0" stroke="none" x="143" y="199" width="92.0654296875" height="44" opacity="0.2"/></g><g transform="translate(12,2) scale(1,1)"><rect fill="#ffffff" stroke="none" x="136" y="192" width="92.0654296875" height="44"/></g><g transform="translate(12,2) scale(1,1)"><path fill="none" stroke="#000000" d="M 136 192 L 228.0654296875 192 L 228.0654296875 236 L 136 236 L 136 192 Z Z" stroke-miterlimit="10"/></g><g transform="translate(12,2) scale(1,1)"><path fill="none" stroke="#000000" d="M 136 217 L 228.0654296875 217" stroke-miterlimit="10"/></g><g transform="translate(12,2) scale(1,1)"><path fill="none" stroke="#000000" d="M 136 227 L 228.0654296875 227" stroke-miterlimit="10"/></g><g transform="translate(12,2) scale(1,1)"><g><path fill="none" stroke="none"/><text fill="#000000" stroke="none" font-family="Arial" font-size="13px" font-style="normal" font-weight="bold" text-decoration="none" x="140.5" y="210">InputSelector</text></g></g><g transform="translate(12,2) scale(1,1)"><rect fill="#C0C0C0" stroke="none" x="367" y="295" width="50.919921875" height="44" opacity="0.2"/></g><g transform="translate(12,2) scale(1,1)"><rect fill="#ffffff" stroke="none" x="360" y="288" width="50.919921875" height="44"/></g><g transform="translate(12,2) scale(1,1)"><path fill="none" stroke="#000000" d="M 360 288 L 410.919921875 288 L 410.919921875 332 L 360 332 L 360 288 Z Z" stroke-miterlimit="10"/></g><g transform="translate(12,2) scale(1,1)"><path fill="none" stroke="#000000" d="M 360 313 L 410.919921875 313" stroke-miterlimit="10"/></g><g transform="translate(12,2) scale(1,1)"><path fill="none" stroke="#000000" d="M 360 323 L 410.919921875 323" stroke-miterlimit="10"/></g><g transform="translate(12,2) scale(1,1)"><g><path fill="none" stroke="none"/><text fill="#000000" stroke="none" font-family="Arial" font-size="13px" font-style="normal" font-weight="bold" text-decoration="none" x="365.239501953125" y="306">Action</text></g></g><g transform="translate(12,2) scale(1,1)"><path fill="none" stroke="#000000" d="M 229 236 L 359 298" stroke-miterlimit="10"/></g><g transform="translate(12,2) scale(1,1)"><g><path fill="none" stroke="none"/><text fill="#000000" stroke="none" font-family="Arial" font-size="13px" font-style="normal" font-weight="normal" text-decoration="none" x="239.5" y="234">+call</text></g></g><g transform="translate(12,2) scale(1,1)"><path fill="none" stroke="#000000" d="M 96 295 L 158 237" stroke-miterlimit="10"/></g><g transform="translate(12,2) scale(1,1)"><g><path fill="none" stroke="none"/><text fill="#000000" stroke="none" font-family="Arial" font-size="13px" font-style="normal" font-weight="normal" text-decoration="none" x="119.5" y="290">+Input and select</text></g></g><g transform="translate(12,2) scale(1,1)"><path fill="#ffffff" stroke="none" d="M 504 296 L 760.47265625 296 L 770.47265625 306 L 770.47265625 334 L 504 334 L 504 296"/></g><g transform="translate(12,2) scale(1,1)"><path fill="none" stroke="#000000" d="M 504 296 L 760.47265625 296 L 770.47265625 306 L 770.47265625 334 L 504 334 L 504 296 L 504 296" stroke-miterlimit="10"/></g><g transform="translate(12,2) scale(1,1)"><path fill="none" stroke="#000000" d="M 760.47265625 296 L 760.47265625 306 L 770.47265625 306 L 760.47265625 296" stroke-miterlimit="10"/></g><g transform="translate(12,2) scale(1,1)"><g><path fill="none" stroke="none"/><text fill="#000000" stroke="none" font-family="Arial" font-size="13px" font-style="normal" font-weight="normal" text-decoration="none" x="509" y="312">Storyの読み込みでActionクラスを生成する</text></g></g></g></svg>